<svg width="150" height="150" viewBox="0 0 150 150" fill="none" xmlns="http://www.w3.org/2000/svg">
<g clip-path="url(#clip0_8_10)">
<path d="M69.3253 61.3337C69.711 61.0328 70.0607 60.728 70.3725 60.4318C69.5033 60.6448 68.6184 60.6495 67.7274 60.5681C66.6585 60.5828 67.9299 61.1189 69.3253 61.3337Z" fill="black"/>
<path d="M73.4662 59.1377C74.1026 58.259 74.5668 57.297 74.7305 56.3019C74.5876 57.0112 74.2029 57.6235 73.8405 58.2694C71.8417 59.5276 73.6526 57.5222 73.8395 56.7599C71.6898 59.4651 73.5438 58.382 73.4662 59.1377Z" fill="black"/>
<path d="M75.5842 53.626C75.7133 51.7006 75.2051 52.3092 75.0343 53.044C75.2335 53.1476 75.3911 54.4011 75.5842 53.626Z" fill="black"/>
<path d="M63.6731 27.3098C64.2438 27.4121 64.9058 27.4906 64.813 27.6269C65.4372 27.4901 65.5791 27.3643 63.6731 27.3098Z" fill="black"/>
<path d="M64.7851 27.677L64.813 27.6273L64.4099 27.7106L64.7851 27.677Z" fill="black"/>
<path d="M63.3291 67.4638C61.7903 66.7432 60.3817 65.6558 59.2233 64.3242C59.838 65.2238 60.5014 66.0987 61.3588 66.7858C59.9085 66.2941 57.9703 63.2705 57.4049 63.1474C59.9056 67.6247 67.5504 70.9995 71.5536 69.3249C69.7015 69.3935 67.3484 69.3627 65.2668 68.5938C64.4662 68.1816 63.4049 67.3673 63.3949 67.099C63.3552 67.2031 63.288 67.3072 63.3291 67.4638Z" fill="black"/>
<path d="M85.9653 41.6819C87.3958 43.754 88.2116 46.9659 88.5858 48.2961C88.3 46.674 87.8387 45.103 87.2751 43.5827C87.7095 43.7653 86.5753 40.2453 87.8396 42.5767C86.4892 37.6073 82.0597 32.9644 77.9846 30.7854C78.4834 31.2415 79.1127 31.8146 78.8865 31.9045C76.8599 30.6979 77.2166 30.6037 76.9261 30.0941C75.2752 29.4221 75.1668 30.148 74.0733 30.0955C70.9616 28.445 70.3616 28.6206 67.4984 27.5867L67.6285 28.1952C65.5668 27.5086 65.2266 28.4559 62.9984 28.1975C62.8626 28.0916 63.7124 27.8143 64.4113 27.7125C62.4183 27.9756 62.5115 27.3198 60.5615 27.7849C61.0422 27.4475 61.5504 27.2247 62.0634 26.9379C60.438 27.0368 58.1828 27.8838 58.8793 27.1135C56.2281 28.2964 51.5194 29.9568 48.8771 32.4344L48.7939 31.8794C47.583 33.333 43.5141 36.2204 43.1899 38.1027L42.8663 38.1784C42.236 39.245 41.8286 40.4544 41.3289 41.5518C40.5051 42.9557 40.1213 42.0921 40.2382 42.3122C38.6175 45.5984 37.8127 48.3595 37.1171 50.6241C37.6125 51.3647 37.1289 55.0834 37.3163 58.0597C36.5024 72.7583 47.6322 87.0291 59.7973 90.3243C61.5803 90.9622 64.2325 90.9376 66.4876 91.0033C63.8265 90.2425 63.4825 90.6002 60.8904 89.6964C59.0203 88.8158 58.6105 87.8103 57.2861 86.6609L57.8104 87.5874C55.2126 86.668 56.2995 86.4499 54.1863 85.7803L54.746 85.0493C53.9042 84.9854 52.5159 83.6302 52.1364 82.8802L51.2156 82.9166C50.1088 81.551 49.5192 80.5672 49.5623 79.8049L49.2647 80.3349C48.9273 79.7562 45.1934 75.2141 47.1306 76.2712C46.7705 75.9423 46.2921 75.7356 45.7735 74.7934L46.1682 74.3425C45.236 73.143 44.4524 71.6056 44.5115 71.0931C45.0089 71.7651 45.3538 71.8905 45.6954 72.0054C43.3414 66.164 43.2089 71.6837 41.4259 66.0594L41.803 66.0291C41.5139 65.5938 41.3384 65.1206 41.1056 64.6564L41.2697 63.0201C39.5748 61.0602 40.7956 54.6869 41.0403 51.1915C41.2097 49.77 42.4551 48.2573 43.4024 45.8842L42.8256 45.7849C43.9286 43.8609 49.1241 38.0573 51.5303 38.3559C52.6957 36.8918 51.2989 38.3507 51.0708 37.9816C53.6307 35.3322 54.4361 36.1097 56.1637 35.6332C58.0271 34.5273 54.5643 36.0647 55.4478 35.2116C58.6692 34.3887 57.7309 33.3411 61.9332 32.9232C62.3766 33.1754 60.9045 33.3131 60.535 33.6401C63.2189 32.327 69.0282 32.6256 72.8018 34.3688C77.1802 36.4149 82.0994 42.4636 82.2934 48.1546L82.5139 48.2142C82.4023 50.4765 82.8603 53.0923 82.0663 55.4956L82.6067 54.358C82.6706 56.087 82.1008 56.926 81.5874 58.4109L80.6633 58.8727C79.9072 60.341 80.7367 59.8049 80.1949 60.9731C79.0143 62.0227 76.6124 64.2575 75.8439 64.4615C75.2827 64.4492 76.2239 63.7995 76.3474 63.5444C74.767 64.6294 75.0797 65.1736 72.6627 65.8328L72.5917 65.6757C66.631 68.4797 58.3517 62.9227 58.4605 55.3404C58.3967 55.8216 58.2798 55.7014 58.1478 55.8959C57.8402 51.9945 59.9492 48.076 63.5066 46.4762C66.9859 44.7538 71.0652 45.4607 73.5575 47.7831C72.1886 45.9898 69.4635 44.089 66.234 44.2669C63.0703 44.3171 60.111 46.3271 59.1235 48.5095C57.5028 49.5297 57.315 52.443 56.6085 52.9759C55.6583 59.9591 58.3957 62.9761 63.0263 66.525C63.3996 66.7768 63.4441 66.9187 63.4119 67.0479C63.4143 67.0451 63.4143 67.0413 63.4172 67.0389C68.8801 69.0797 74.5237 68.5848 79.2504 64.7951C80.4527 63.8586 81.7668 62.2654 82.1463 62.2432C81.5747 63.103 82.2437 62.6567 81.8046 63.4157C83.0027 61.4832 81.2841 62.6293 83.0434 60.0784L83.6931 60.9731C83.4518 59.369 85.6852 57.421 85.4586 54.8842C85.971 54.1082 86.0302 55.7189 85.4865 57.5038C86.2407 55.5235 85.6852 55.2055 85.8792 53.5716C86.0889 54.121 86.3638 54.7044 86.5048 55.284C86.0131 53.3705 87.0092 52.0617 87.2557 50.9497C87.013 50.8418 86.4972 51.7957 86.3794 49.5353C86.3964 48.5535 86.6524 49.0205 86.7513 48.7792C86.5587 48.6685 86.0529 47.9161 85.7453 46.4724C85.9687 46.1331 86.3415 47.3516 86.6448 47.4017C86.4499 46.2538 86.1135 45.3789 86.0997 44.4983C85.213 42.6453 85.786 44.7453 85.0668 43.7029C84.1218 40.7587 85.8485 43.0191 85.9653 41.6819Z" fill="black"/>
<path d="M63.3944 67.099C63.4011 67.082 63.4067 67.0644 63.411 67.0469C63.3987 67.0602 63.394 67.0782 63.3944 67.099Z" fill="black"/>
<path d="M55.9077 62.7854C56.6104 63.7399 57.1678 64.7738 58.065 65.52C57.4195 64.2599 56.9397 63.7394 56.0577 62.0359L55.9077 62.7854Z" fill="black"/>
<path d="M57.7186 61.9702C57.3467 61.559 57.1266 61.064 56.8801 60.571C57.1158 61.4378 57.5984 62.1826 58.0475 62.9402L57.7186 61.9702Z" fill="black"/>
<path d="M85.0928 61.9214C86.1461 59.9411 86.827 57.7758 87.1128 55.5812L86.9557 55.9749C86.668 58.0209 86.0463 60.0452 85.0928 61.9214Z" fill="black"/>
<path d="M66.4285 26.4775C65.4291 26.5613 64.434 26.6114 63.4517 26.7382L63.8842 26.7974C64.6072 26.5324 65.6615 26.6521 66.4285 26.4775Z" fill="black"/>
<path d="M38.7997 41.4164C39.5791 39.6604 38.495 40.9314 38.5059 40.2926C38.6724 41.8347 37.3456 42.4333 38.7997 41.4164Z" fill="black"/>
<path d="M37.3205 45.1891C36.3945 46.3726 36.8947 46.6248 36.7967 47.4297C37.1317 46.4014 37.1928 45.7839 37.3205 45.1891Z" fill="black"/>
<path d="M100.329 117.548C100.329 115.711 98.924 114.738 96.4379 114.738C95.2488 114.738 94.5645 114.81 94.0961 114.883V120.539H95.898C98.7797 120.539 100.329 119.35 100.329 117.548Z" fill="black"/>
<path d="M52.3371 114.955C51.112 114.955 50.3194 115.062 49.851 115.17V131.059C50.3194 131.167 51.076 131.167 51.7607 131.167C56.7325 131.203 59.9747 128.465 59.9747 122.665C60.0112 117.62 57.0566 114.955 52.3371 114.955Z" fill="black"/>
<path d="M95.9699 124.466H94.0961V131.312C94.6369 131.383 95.2852 131.383 96.2216 131.383C98.7077 131.383 100.905 130.447 100.905 127.889C100.905 125.438 98.7077 124.466 95.9699 124.466Z" fill="black"/>
<path d="M128.151 33.3832L100.396 1.73186C99.4303 0.631228 98.0377 0 96.5737 0H26.4704C23.222 0 20.5883 2.63375 20.5883 5.88216V144.118C20.5883 147.367 23.222 150 26.4704 150H123.529C126.778 150 129.411 147.366 129.411 144.117V36.7347C129.412 35.5016 128.964 34.3106 128.151 33.3832ZM61.7766 132.32C59.2186 134.446 55.3271 135.455 50.5716 135.455C47.7249 135.455 45.7077 135.274 44.3383 135.094V111.243C46.356 110.919 48.986 110.739 51.7607 110.739C56.3724 110.739 59.3624 111.568 61.7047 113.333C64.2268 115.206 65.8119 118.197 65.8119 122.484C65.8115 127.132 64.1184 130.339 61.7766 132.32ZM84.9078 135.203H69.4157V110.919H84.4038V115.423H74.9283V120.467H83.8635V124.934H74.9283V130.699H84.9083V135.203H84.9078ZM104.148 133.257C102.383 134.662 99.4284 135.455 94.6005 135.455C91.8981 135.455 89.8805 135.275 88.6559 135.095V111.244C90.0972 110.956 93.0153 110.739 95.7536 110.739C99.1043 110.739 101.158 111.064 102.923 112.109C104.616 113.009 105.841 114.667 105.841 116.865C105.841 119.026 104.58 121.044 101.843 122.053V122.125C104.616 122.882 106.67 124.971 106.67 128.106C106.67 130.303 105.661 132.032 104.148 133.257ZM26.4704 99.8765V5.88263H94.6085V35.9776C94.6085 37.6011 95.9245 38.919 97.5499 38.919H123.529L123.532 99.8765H26.4704Z" fill="black"/>
</g>
<defs>
<clipPath id="clip0_8_10">
<rect width="150" height="150" fill="white"/>
</clipPath>
</defs>
</svg>
