<svg width="150" height="150" viewBox="0 0 150 150" fill="none" xmlns="http://www.w3.org/2000/svg">
<path d="M72.8449 36.1746C71.2482 27.4705 75.3639 18.513 80.3203 12.4764C85.7827 5.81572 95.1568 0.707813 103.168 0.146484C104.521 9.27217 100.797 18.1635 95.8945 24.4526C90.6357 31.2091 81.5941 36.4485 72.8449 36.1746ZM119.834 67.7142C122.313 60.7983 127.224 54.576 134.842 50.3777C127.143 40.7707 116.334 35.1932 106.134 35.1932C92.6385 35.1932 86.9323 41.6229 77.5585 41.6229C67.9023 41.6229 60.5766 35.1932 48.8868 35.1932C37.4238 35.1932 25.222 42.1799 17.4835 54.1122C14.6382 58.5229 12.7107 64.0022 11.6596 70.1054C8.74278 87.2262 13.0998 109.526 26.0968 129.327C32.4161 138.935 40.8393 149.758 51.8432 149.852C61.6456 149.948 64.4265 143.585 77.6965 143.52C90.9861 143.444 93.5048 149.918 103.294 149.825C114.301 149.732 123.188 137.755 129.507 128.148C134.007 121.254 135.709 117.771 139.208 109.977C121.417 103.268 114.099 83.6634 119.834 67.7142Z" fill="black"/>
</svg>
